<svg xmlns="http://www.w3.org/2000/svg" style="display: none;">
  <symbol id="chat" viewBox="0 0 24 24" fill="none">
    <path id="Vector" d="M9.33814 15.9905C12.4946 15.8151 15 13.2003 15 10C15 6.68629 12.3137 4 9 4C5.68629 4 3 6.68629 3 10C3 11.1807 3.34094 12.2817 3.92989 13.21L3.50586 14.482L3.50518 14.4839C3.34278 14.9711 3.26154 15.2149 3.31938 15.3771C3.36979 15.5184 3.48169 15.6299 3.62305 15.6803C3.78472 15.7379 4.02675 15.6573 4.51069 15.4959L4.51758 15.4939L5.79004 15.0698C6.7183 15.6588 7.81935 15.9998 9.00006 15.9998C9.11352 15.9998 9.22624 15.9967 9.33814 15.9905ZM9.33814 15.9905C9.33822 15.9907 9.33806 15.9902 9.33814 15.9905ZM9.33814 15.9905C10.1591 18.3259 12.3841 20.0002 15.0001 20.0002C16.1808 20.0002 17.2817 19.6588 18.2099 19.0698L19.482 19.4939L19.4845 19.4944C19.9717 19.6567 20.2158 19.7381 20.378 19.6803C20.5194 19.6299 20.6299 19.5184 20.6803 19.3771C20.7382 19.2146 20.6572 18.9706 20.4943 18.4821L20.0703 17.21L20.2123 16.9746C20.7138 16.0979 20.9995 15.0823 20.9995 14C20.9995 10.6863 18.3137 8 15 8L14.7754 8.00414L14.6621 8.00967" stroke="#000000" stroke-width="1" stroke-linecap="round" stroke-linejoin="round"/>
  </symbol>
  <symbol id="user" viewBox="0 0 24 24" fill="none">
    <path d="M20 21C20 18.2386 16.4183 16 12 16C7.58172 16 4 18.2386 4 21M12 13C9.23858 13 7 10.7614 7 8C7 5.23858 9.23858 3 12 3C14.7614 3 17 5.23858 17 8C17 10.7614 14.7614 13 12 13Z" stroke="#000000" stroke-width="1" stroke-linecap="round" stroke-linejoin="round"/>
  </symbol>
  <symbol id="users" viewBox="0 0 24 24" fill="none">
    <path d="M17 20C17 18.3431 14.7614 17 12 17C9.23858 17 7 18.3431 7 20M21 17.0004C21 15.7702 19.7659 14.7129 18 14.25M3 17.0004C3 15.7702 4.2341 14.7129 6 14.25M18 10.2361C18.6137 9.68679 19 8.8885 19 8C19 6.34315 17.6569 5 16 5C15.2316 5 14.5308 5.28885 14 5.76389M6 10.2361C5.38625 9.68679 5 8.8885 5 8C5 6.34315 6.34315 5 8 5C8.76835 5 9.46924 5.28885 10 5.76389M12 14C10.3431 14 9 12.6569 9 11C9 9.34315 10.3431 8 12 8C13.6569 8 15 9.34315 15 11C15 12.6569 13.6569 14 12 14Z" stroke="#000000" stroke-width="1" stroke-linecap="round" stroke-linejoin="round"/>
  </symbol>
  <symbol id="close-md" viewBox="0 0 24 24" fill="none">
    <path d="M18 18L12 12M12 12L6 6M12 12L18 6M12 12L6 18" stroke="#000000" stroke-width="1" stroke-linecap="round" stroke-linejoin="round"/>
  </symbol>
  <symbol id="return" viewBox="0 0 24 24" fill="none">
    <path d="M7 13L3 9M3 9L7 5M3 9H16C18.7614 9 21 11.2386 21 14C21 16.7614 18.7614 19 16 19H11" stroke="#000000" stroke-width="1" stroke-linecap="round" stroke-linejoin="round"/>
  </symbol>
  <symbol id="basket" viewBox="0 0 24 24" fill="none">
    <path d="M6 6V17.8C6 18.9201 6 19.4798 6.21799 19.9076C6.40973 20.2839 6.71547 20.5905 7.0918 20.7822C7.5192 21 8.07899 21 9.19691 21H14.8031C15.921 21 16.48 21 16.9074 20.7822C17.2837 20.5905 17.5905 20.2839 17.7822 19.9076C18 19.4802 18 18.921 18 17.8031V6M6 6H8M6 6H4M8 6H16M8 6C8 5.06812 8 4.60241 8.15224 4.23486C8.35523 3.74481 8.74432 3.35523 9.23438 3.15224C9.60192 3 10.0681 3 11 3H13C13.9319 3 14.3978 3 14.7654 3.15224C15.2554 3.35523 15.6447 3.74481 15.8477 4.23486C15.9999 4.6024 16 5.06812 16 6M16 6H18M18 6H20" stroke="#7f1d1d" stroke-width="1" stroke-linecap="round" stroke-linejoin="round"/>
  </symbol>
  <symbol id="paper-plane" viewBox="0 0 24 24" fill="none">
    <path d="M10.3078 13.6923L15.1539 8.84619M20.1113 5.88867L16.0207 19.1833C15.6541 20.3747 15.4706 20.9707 15.1544 21.1683C14.8802 21.3396 14.5406 21.3683 14.2419 21.2443C13.8975 21.1014 13.618 20.5433 13.0603 19.428L10.4694 14.2461C10.3809 14.0691 10.3366 13.981 10.2775 13.9043C10.225 13.8363 10.1645 13.7749 10.0965 13.7225C10.0215 13.6647 9.93486 13.6214 9.76577 13.5369L4.57192 10.9399C3.45662 10.3823 2.89892 10.1032 2.75601 9.75879C2.63207 9.4601 2.66033 9.12023 2.83169 8.84597C3.02928 8.52974 3.62523 8.34603 4.81704 7.97932L18.1116 3.88867C19.0486 3.60038 19.5173 3.45635 19.8337 3.57253C20.1094 3.67373 20.3267 3.89084 20.4279 4.16651C20.544 4.48283 20.3999 4.95126 20.1119 5.88729L20.1113 5.88867Z" stroke="#000000" stroke-width="1" stroke-linecap="round" stroke-linejoin="round"/>
  </symbol>
  <symbol id="pencil" viewBox="0 0 24 24" fill="none">
    <path d="M12 8.00012L4 16.0001V20.0001L8 20.0001L16 12.0001M12 8.00012L14.8686 5.13146L14.8704 5.12976C15.2652 4.73488 15.463 4.53709 15.691 4.46301C15.8919 4.39775 16.1082 4.39775 16.3091 4.46301C16.5369 4.53704 16.7345 4.7346 17.1288 5.12892L18.8686 6.86872C19.2646 7.26474 19.4627 7.46284 19.5369 7.69117C19.6022 7.89201 19.6021 8.10835 19.5369 8.3092C19.4628 8.53736 19.265 8.73516 18.8695 9.13061L18.8686 9.13146L16 12.0001M12 8.00012L16 12.0001" stroke="#000000" stroke-width="1" stroke-linecap="round" stroke-linejoin="round"/>
  </symbol>
  <symbol id="save" viewBox="0 0 24 24" fill="none">
    <path d="M17 21.0002L7 21M17 21.0002L17.8031 21C18.921 21 19.48 21 19.9074 20.7822C20.2837 20.5905 20.5905 20.2843 20.7822 19.908C21 19.4806 21 18.921 21 17.8031V9.21955C21 8.77072 21 8.54521 20.9521 8.33105C20.9095 8.14 20.8393 7.95652 20.7432 7.78595C20.6366 7.59674 20.487 7.43055 20.1929 7.10378L17.4377 4.04241C17.0969 3.66374 16.9242 3.47181 16.7168 3.33398C16.5303 3.21 16.3242 3.11858 16.1073 3.06287C15.8625 3 15.5998 3 15.075 3H6.2002C5.08009 3 4.51962 3 4.0918 3.21799C3.71547 3.40973 3.40973 3.71547 3.21799 4.0918C3 4.51962 3 5.08009 3 6.2002V17.8002C3 18.9203 3 19.4796 3.21799 19.9074C3.40973 20.2837 3.71547 20.5905 4.0918 20.7822C4.5192 21 5.07899 21 6.19691 21H7M17 21.0002V17.1969C17 16.079 17 15.5192 16.7822 15.0918C16.5905 14.7155 16.2837 14.4097 15.9074 14.218C15.4796 14 14.9203 14 13.8002 14H10.2002C9.08009 14 8.51962 14 8.0918 14.218C7.71547 14.4097 7.40973 14.7155 7.21799 15.0918C7 15.5196 7 16.0801 7 17.2002V21M15 7H9" stroke="#000000" stroke-width="1" stroke-linecap="round" stroke-linejoin="round"/>
  </symbol>
  <symbol id="heart" viewBox="0 0 24 24" fill="#e11d48">
    <path d="M12 7.69431C10 2.99988 3 3.49988 3 9.49991C3 15.4999 12 20.5001 12 20.5001C12 20.5001 21 15.4999 21 9.49991C21 3.49988 14 2.99988 12 7.69431Z" stroke="#000000" stroke-width="1" stroke-linecap="round" stroke-linejoin="round"/>
  </symbol>
  <symbol id="warning" viewBox="0 0 24 24" fill="#fee2e2">
    <path d="M12 8.4502V12.4502M12 21C7.02944 21 3 16.9706 3 12C3 7.02944 7.02944 3 12 3C16.9706 3 21 7.02944 21 12C21 16.9706 16.9706 21 12 21ZM12.0498 15.4502V15.5502L11.9502 15.5498V15.4502H12.0498Z" stroke="#7f1d1d" stroke-width="1" stroke-linecap="round" stroke-linejoin="round"/>
  </symbol>
</svg>