<svg xmlns="http://www.w3.org/2000/svg" style="display: none;">
  
  
  <symbol id="chat" viewBox="0 -960 960 960">
    <path d="m243.077-280-68.154 68.154q-15.154 15.154-35.039 6.962Q120-213.077 120-234.692v-540.693Q120-803 138.5-821.5 157-840 184.615-840h590.77Q803-840 821.5-821.5 840-803 840-775.385v430.77Q840-317 821.5-298.5 803-280 775.385-280H243.077ZM226-320h549.385q9.23 0 16.923-7.692Q800-335.385 800-344.615v-430.77q0-9.23-7.692-16.923Q784.615-800 775.385-800h-590.77q-9.23 0-16.923 7.692Q160-784.615 160-775.385v521.154L226-320Zm-66 0v-480 480Zm120-100h240q8.539 0 14.269-5.731Q540-431.461 540-440t-5.731-14.269Q528.539-460 520-460H280q-8.539 0-14.269 5.731Q260-448.539 260-440t5.731 14.269Q271.461-420 280-420Zm0-120h400q8.539 0 14.269-5.731Q700-551.461 700-560t-5.731-14.269Q688.539-580 680-580H280q-8.539 0-14.269 5.731Q260-568.539 260-560t5.731 14.269Q271.461-540 280-540Zm0-120h400q8.539 0 14.269-5.731Q700-671.461 700-680t-5.731-14.269Q688.539-700 680-700H280q-8.539 0-14.269 5.731Q260-688.539 260-680t5.731 14.269Q271.461-660 280-660Z"/>
  </symbol>

  <symbol id="user" viewBox="0 -960 960 960">
    <path d="M480-504.615q-49.5 0-84.75-35.25T360-624.615q0-49.501 35.25-84.751 35.25-35.25 84.75-35.25t84.75 35.25Q600-674.116 600-624.615q0 49.5-35.25 84.75T480-504.615ZM200-256.923v-24.308q0-24.769 14.423-46.346 14.423-21.577 38.808-33.5 56.615-27.154 113.307-40.731Q423.231-415.385 480-415.385q56.769 0 113.462 13.577 56.692 13.577 113.307 40.731 24.385 11.923 38.808 33.5Q760-306 760-281.231v24.308q0 17.616-11.961 29.577-11.962 11.962-29.577 11.962H241.538q-17.615 0-29.577-11.962Q200-239.307 200-256.923Zm40 1.538h480v-25.846q0-13.307-8.577-25-8.577-11.692-23.731-19.769-49.384-23.923-101.836-36.654Q533.405-375.385 480-375.385q-53.405 0-105.856 12.731Q321.692-349.923 272.308-326q-15.154 8.077-23.731 19.769-8.577 11.693-8.577 25v25.846Zm240-289.23q33 0 56.5-23.5t23.5-56.5q0-33-23.5-56.5t-56.5-23.5q-33 0-56.5 23.5t-23.5 56.5q0 33 23.5 56.5t56.5 23.5Zm0-80Zm0 369.23Z"/>
  </symbol>

  <symbol id="users" viewBox="0 -960 960 960">
    <path d="M103.846-281.231q0-27.846 14.423-47.884 14.423-20.039 38.765-32.029 52.043-24.779 103.35-39.51 51.308-14.731 123.462-14.731t123.462 14.731q51.307 14.731 103.35 39.51 24.342 11.99 38.765 32.029 14.423 20.038 14.423 47.884v24.308q0 15.308-11.961 28.423-11.962 13.116-29.577 13.116H145.384q-17.615 0-29.577-11.962-11.961-11.961-11.961-29.577v-24.308Zm710.77 65.847h-79.693q4.077-9.539 6.5-20.119 2.423-10.581 2.423-21.42v-26.154q0-34.769-14.074-65.64-14.075-30.871-39.926-52.976 29.462 6 56.769 16.654 27.308 10.654 54.001 23.962 26 13.077 40.769 33.469 14.769 20.393 14.769 44.531v26.154q0 17.616-11.961 29.577-11.962 11.962-29.577 11.962Zm-430.77-289.231q-49.5 0-84.75-35.25t-35.25-84.75q0-49.501 35.25-84.751 35.25-35.25 84.75-35.25t84.75 35.25q35.25 35.25 35.25 84.751 0 49.5-35.25 84.75t-84.75 35.25Zm290.77-120q0 49.5-35.25 84.75t-84.75 35.25q-2.539 0-6.462-.577-3.923-.577-6.462-1.269 20.325-24.895 31.239-55.235 10.915-30.34 10.915-63.015 0-32.674-11.423-62.443t-30.731-55.616q3.231-1.153 6.462-1.5 3.231-.346 6.462-.346 49.5 0 84.75 35.25t35.25 84.751Zm-530.77 369.23h480v-25.846q0-14.077-7.038-24.615-7.039-10.539-25.27-20.154-44.769-23.923-94.384-36.654-49.616-12.731-113.308-12.731-63.692 0-113.308 12.731-49.615 12.731-94.384 36.654-18.231 9.615-25.27 20.154-7.038 10.538-7.038 24.615v25.846Zm240-289.23q33 0 56.5-23.5t23.5-56.5q0-33-23.5-56.5t-56.5-23.5q-33 0-56.5 23.5t-23.5 56.5q0 33 23.5 56.5t56.5 23.5Zm0 289.23Zm0-369.23Z"/>
  </symbol>

  <symbol id='close' viewBox="0 -960 960 960">
    <path d="M480-451.692 270.154-241.846q-5.615 5.615-13.769 6-8.154.385-14.539-6T235.461-256q0-7.769 6.385-14.154L451.692-480 241.846-689.846q-5.615-5.615-6-13.769-.385-8.154 6-14.539T256-724.539q7.769 0 14.154 6.385L480-508.308l209.846-209.846q5.615-5.615 13.769-6 8.154-.385 14.539 6T724.539-704q0 7.769-6.385 14.154L508.308-480l209.846 209.846q5.615 5.615 6 13.769.385 8.154-6 14.539T704-235.461q-7.769 0-14.154-6.385L480-451.692Z"/>
  </symbol>

  <symbol id='sign-out' viewBox="0 -960 960 960">
    <path d="M224.615-160Q197-160 178.5-178.5 160-197 160-224.615v-510.77Q160-763 178.5-781.5 197-800 224.615-800h236.154q8.539 0 14.269 5.731 5.731 5.73 5.731 14.269 0 8.538-5.731 14.269-5.73 5.731-14.269 5.731H224.615q-9.23 0-16.923 7.692Q200-744.615 200-735.385v510.77q0 9.23 7.692 16.923Q215.385-200 224.615-200h236.154q8.539 0 14.269 5.731 5.731 5.731 5.731 14.269 0 8.539-5.731 14.269-5.73 5.731-14.269 5.731H224.615Zm497.769-300H387.692q-8.538 0-14.269-5.731-5.731-5.73-5.731-14.269t5.731-14.269Q379.154-500 387.692-500h334.692l-78.846-78.846q-5.615-5.616-6-13.539-.384-7.923 6-14.538 6.385-6.616 14.154-6.731 7.769-.116 14.385 6.5l104.539 104.539q9.692 9.692 9.692 22.615 0 12.923-9.692 22.615L672.077-352.846q-5.846 5.846-13.885 6.116-8.038.269-14.654-6.347-6.384-6.615-6.269-14.269.115-7.654 6.5-14.039L722.384-460Z"/>
  </symbol>

  
  <symbol id='chevron-left' viewBox="0 -960 960 960">
    <path d="m404.308-480 169.846 169.846q5.615 5.615 6 13.769.385 8.154-6 14.539T560-275.461q-7.769 0-14.154-6.385L370.308-457.385q-5.231-5.23-7.347-10.692-2.115-5.461-2.115-11.923t2.115-11.923q2.116-5.462 7.347-10.692l175.538-175.539q5.615-5.615 13.769-6 8.154-.385 14.539 6T580.539-664q0 7.769-6.385 14.154L404.308-480Z"/>
  </symbol>

  
  <symbol id='moon' viewBox="0 -960 960 960">
    <path d="M482.308-160Q349-160 255.654-253.346 162.307-346.692 162.307-480q0-98.769 56.539-181.423t160.385-118.885q12.231-4.308 21.462-2.269 9.23 2.038 15.23 7.961t7.654 15.231q1.654 9.308-2.5 19.539-7.769 19.077-11.269 38.658t-3.5 41.188q0 106.667 74.667 181.333Q555.641-404 662.308-404q27.923 0 51.115-5.923 23.192-5.923 39.5-9.616 8.693-1.615 15.962.423 7.269 2.039 11.532 7.039 4.737 5 6.391 12.307 1.654 7.308-1.885 16.693-28.615 98-112.115 160.539Q589.308-160 482.308-160Zm0-40q88 0 158-48.5t102-126.5q-20 5-40 8t-40 3q-123 0-209.5-86.5t-86.5-209.5q0-20 3-40t8-40q-78 32-126.5 102t-48.5 158q0 116 82 198t198 82Zm-10-270Z"/>
  </symbol>

  
  <symbol id='sun' viewBox="0 -960 960 960">
   <path d="M480-360q50 0 85-35t35-85q0-50-35-85t-85-35q-50 0-85 35t-35 85q0 50 35 85t85 35Zm0 40q-66.846 0-113.423-46.577T320-480q0-66.846 46.577-113.423T480-640q66.846 0 113.423 46.577T640-480q0 66.846-46.577 113.423T480-320ZM80-460q-8.5 0-14.25-5.758Q60-471.515 60-480.027t5.75-14.242Q71.5-500 80-500h100q8.5 0 14.25 5.758 5.75 5.757 5.75 14.269t-5.75 14.242Q188.5-460 180-460H80Zm700 0q-8.5 0-14.25-5.758-5.75-5.757-5.75-14.269t5.75-14.242Q771.5-500 780-500h100q8.5 0 14.25 5.758 5.75 5.757 5.75 14.269t-5.75 14.242Q888.5-460 880-460H780ZM479.973-760q-8.512 0-14.242-5.75Q460-771.5 460-780v-100q0-8.5 5.758-14.25 5.757-5.75 14.269-5.75t14.242 5.75Q500-888.5 500-880v100q0 8.5-5.758 14.25-5.757 5.75-14.269 5.75Zm0 700q-8.512 0-14.242-5.75Q460-71.5 460-80v-100q0-8.5 5.758-14.25 5.757-5.75 14.269-5.75t14.242 5.75Q500-188.5 500-180v100q0 8.5-5.758 14.25Q488.485-60 479.973-60ZM254.461-678.769l-57.615-55.846q-5.846-5.616-5.731-13.77.116-8.154 5.965-14.769 6.381-6.615 14.151-6.615 7.769 0 14.154 6.615L282-706.308q6.385 6.616 6.385 14.154 0 7.539-6 14.154t-13.654 6.115q-7.654-.5-14.27-6.884Zm480.154 481.923L678-253.692q-6.385-6.616-6.385-14.269 0-7.654 6.385-14.039 5.231-6.615 13.077-6.115t14.462 6.884l57.615 55.846q5.846 5.616 5.731 13.77-.116 8.154-5.965 14.769-6.381 6.615-14.151 6.615-7.769 0-14.154-6.615ZM678-677.615q-6.615-6-6.115-13.654t6.884-14.27l55.846-57.615q5.616-5.846 13.77-5.731 8.154.116 14.769 5.965 6.615 6.381 6.615 14.151 0 7.769-6.615 14.154L706.308-678q-6.616 6.385-14.154 6.385-7.539 0-14.154-6ZM196.846-196.679q-6.615-6.782-6.615-14.552 0-7.769 6.615-14.154L253.692-282q6.616-6.385 14.269-6.385 7.654 0 14.039 6.385 5.846 5.231 5.346 13.077t-6.115 14.462l-55.846 57.615q-6.385 6.615-14.154 6.5-7.77-.115-14.385-6.333ZM480-480Z"/>
  </symbol>

  <symbol id='error' viewBox="0 -960 960 960">
    <path d="M480-301.538q10.462 0 17.539-7.077 7.076-7.077 7.076-17.539 0-10.461-7.076-17.538-7.077-7.077-17.539-7.077-10.462 0-17.539 7.077-7.076 7.077-7.076 17.538 0 10.462 7.076 17.539 7.077 7.077 17.539 7.077Zm.027-132.308q8.512 0 14.242-5.75 5.731-5.75 5.731-14.25v-200q0-8.5-5.758-14.25-5.757-5.75-14.269-5.75t-14.242 5.75q-5.731 5.75-5.731 14.25v200q0 8.5 5.758 14.25 5.757 5.75 14.269 5.75ZM480.134-120q-74.673 0-140.41-28.339-65.737-28.34-114.365-76.922-48.627-48.582-76.993-114.257Q120-405.194 120-479.866q0-74.673 28.339-140.41 28.34-65.737 76.922-114.365 48.582-48.627 114.257-76.993Q405.194-840 479.866-840q74.673 0 140.41 28.339 65.737 28.34 114.365 76.922 48.627 48.582 76.993 114.257Q840-554.806 840-480.134q0 74.673-28.339 140.41-28.34 65.737-76.922 114.365-48.582 48.627-114.257 76.993Q554.806-120 480.134-120ZM480-160q134 0 227-93t93-227q0-134-93-227t-227-93q-134 0-227 93t-93 227q0 134 93 227t227 93Zm0-320Z"/>
  </symbol>

  <symbol id="return" viewBox="0 0 24 24" fill="none">
    <path d="M7 13L3 9M3 9L7 5M3 9H16C18.7614 9 21 11.2386 21 14C21 16.7614 18.7614 19 16 19H11" stroke="#000000" stroke-width="1" stroke-linecap="round" stroke-linejoin="round"/>
  </symbol>
  <symbol id="basket" viewBox="0 0 24 24" fill="none">
    <path d="M6 6V17.8C6 18.9201 6 19.4798 6.21799 19.9076C6.40973 20.2839 6.71547 20.5905 7.0918 20.7822C7.5192 21 8.07899 21 9.19691 21H14.8031C15.921 21 16.48 21 16.9074 20.7822C17.2837 20.5905 17.5905 20.2839 17.7822 19.9076C18 19.4802 18 18.921 18 17.8031V6M6 6H8M6 6H4M8 6H16M8 6C8 5.06812 8 4.60241 8.15224 4.23486C8.35523 3.74481 8.74432 3.35523 9.23438 3.15224C9.60192 3 10.0681 3 11 3H13C13.9319 3 14.3978 3 14.7654 3.15224C15.2554 3.35523 15.6447 3.74481 15.8477 4.23486C15.9999 4.6024 16 5.06812 16 6M16 6H18M18 6H20" stroke="#7f1d1d" stroke-width="1" stroke-linecap="round" stroke-linejoin="round"/>
  </symbol>
  <symbol id="paper-plane" viewBox="0 0 24 24" fill="none">
    <path d="M10.3078 13.6923L15.1539 8.84619M20.1113 5.88867L16.0207 19.1833C15.6541 20.3747 15.4706 20.9707 15.1544 21.1683C14.8802 21.3396 14.5406 21.3683 14.2419 21.2443C13.8975 21.1014 13.618 20.5433 13.0603 19.428L10.4694 14.2461C10.3809 14.0691 10.3366 13.981 10.2775 13.9043C10.225 13.8363 10.1645 13.7749 10.0965 13.7225C10.0215 13.6647 9.93486 13.6214 9.76577 13.5369L4.57192 10.9399C3.45662 10.3823 2.89892 10.1032 2.75601 9.75879C2.63207 9.4601 2.66033 9.12023 2.83169 8.84597C3.02928 8.52974 3.62523 8.34603 4.81704 7.97932L18.1116 3.88867C19.0486 3.60038 19.5173 3.45635 19.8337 3.57253C20.1094 3.67373 20.3267 3.89084 20.4279 4.16651C20.544 4.48283 20.3999 4.95126 20.1119 5.88729L20.1113 5.88867Z" stroke="#000000" stroke-width="1" stroke-linecap="round" stroke-linejoin="round"/>
  </symbol>
  <symbol id="pencil" viewBox="0 0 24 24" fill="none">
    <path d="M12 8.00012L4 16.0001V20.0001L8 20.0001L16 12.0001M12 8.00012L14.8686 5.13146L14.8704 5.12976C15.2652 4.73488 15.463 4.53709 15.691 4.46301C15.8919 4.39775 16.1082 4.39775 16.3091 4.46301C16.5369 4.53704 16.7345 4.7346 17.1288 5.12892L18.8686 6.86872C19.2646 7.26474 19.4627 7.46284 19.5369 7.69117C19.6022 7.89201 19.6021 8.10835 19.5369 8.3092C19.4628 8.53736 19.265 8.73516 18.8695 9.13061L18.8686 9.13146L16 12.0001M12 8.00012L16 12.0001" stroke="#000000" stroke-width="1" stroke-linecap="round" stroke-linejoin="round"/>
  </symbol>
  <symbol id="save" viewBox="0 0 24 24" fill="none">
    <path d="M17 21.0002L7 21M17 21.0002L17.8031 21C18.921 21 19.48 21 19.9074 20.7822C20.2837 20.5905 20.5905 20.2843 20.7822 19.908C21 19.4806 21 18.921 21 17.8031V9.21955C21 8.77072 21 8.54521 20.9521 8.33105C20.9095 8.14 20.8393 7.95652 20.7432 7.78595C20.6366 7.59674 20.487 7.43055 20.1929 7.10378L17.4377 4.04241C17.0969 3.66374 16.9242 3.47181 16.7168 3.33398C16.5303 3.21 16.3242 3.11858 16.1073 3.06287C15.8625 3 15.5998 3 15.075 3H6.2002C5.08009 3 4.51962 3 4.0918 3.21799C3.71547 3.40973 3.40973 3.71547 3.21799 4.0918C3 4.51962 3 5.08009 3 6.2002V17.8002C3 18.9203 3 19.4796 3.21799 19.9074C3.40973 20.2837 3.71547 20.5905 4.0918 20.7822C4.5192 21 5.07899 21 6.19691 21H7M17 21.0002V17.1969C17 16.079 17 15.5192 16.7822 15.0918C16.5905 14.7155 16.2837 14.4097 15.9074 14.218C15.4796 14 14.9203 14 13.8002 14H10.2002C9.08009 14 8.51962 14 8.0918 14.218C7.71547 14.4097 7.40973 14.7155 7.21799 15.0918C7 15.5196 7 16.0801 7 17.2002V21M15 7H9" stroke="#000000" stroke-width="1" stroke-linecap="round" stroke-linejoin="round"/>
  </symbol>
  <symbol id="heart" viewBox="0 0 24 24" fill="#e11d48">
    <path d="M12 7.69431C10 2.99988 3 3.49988 3 9.49991C3 15.4999 12 20.5001 12 20.5001C12 20.5001 21 15.4999 21 9.49991C21 3.49988 14 2.99988 12 7.69431Z" stroke="#000000" stroke-width="1" stroke-linecap="round" stroke-linejoin="round"/>
  </symbol>
  <symbol id="warning" viewBox="0 0 24 24" fill="#fee2e2">
    <path d="M12 8.4502V12.4502M12 21C7.02944 21 3 16.9706 3 12C3 7.02944 7.02944 3 12 3C16.9706 3 21 7.02944 21 12C21 16.9706 16.9706 21 12 21ZM12.0498 15.4502V15.5502L11.9502 15.5498V15.4502H12.0498Z" stroke="#7f1d1d" stroke-width="1" stroke-linecap="round" stroke-linejoin="round"/>
  </symbol>
  <symbol id="user-add" viewBox="0 0 24 24" fill="none">
    <path d="M15 19C15 16.7909 12.3137 15 9 15C5.68629 15 3 16.7909 3 19M19 16V13M19 13V10M19 13H16M19 13H22M9 12C6.79086 12 5 10.2091 5 8C5 5.79086 6.79086 4 9 4C11.2091 4 13 5.79086 13 8C13 10.2091 11.2091 12 9 12Z" stroke="#000000" stroke-width="1" stroke-linecap="round" stroke-linejoin="round"/>
  </symbol>
  <symbol id="user-incoming-request" viewBox="0 0 24 24" fill="none">
    <path d="M15 19C15 16.7909 12.3137 15 9 15C5.68629 15 3 16.7909 3 19M9 12C6.79086 12 5 10.2091 5 8C5 5.79086 6.79086 4 9 4C11.2091 4 13 5.79086 13 8C13 10.2091 11.2091 12 9 12Z" stroke="#000000" stroke-width="1" stroke-linecap="round" stroke-linejoin="round"/>
    <path d="M20 16L17 13L20 10" stroke="#000000" stroke-width="1" stroke-linecap="round" stroke-linejoin="round"/>
  </symbol>
  <symbol id="user-outcoming-request" viewBox="0 0 24 24" fill="none">
    <path d="M15 19C15 16.7909 12.3137 15 9 15C5.68629 15 3 16.7909 3 19M9 12C6.79086 12 5 10.2091 5 8C5 5.79086 6.79086 4 9 4C11.2091 4 13 5.79086 13 8C13 10.2091 11.2091 12 9 12Z" stroke="#000000" stroke-width="1" stroke-linecap="round" stroke-linejoin="round"/>
    <path d="M17 10L20 13L17 16" stroke="#000000" stroke-width="1" stroke-linecap="round" stroke-linejoin="round"/>
  </symbol>
  <symbol id="friend" viewBox="0 0 24 24" fill="none">
    <path d="M15 19C15 16.7909 12.3137 15 9 15C5.68629 15 3 16.7909 3 19M21 10L17 14L15 12M9 12C6.79086 12 5 10.2091 5 8C5 5.79086 6.79086 4 9 4C11.2091 4 13 5.79086 13 8C13 10.2091 11.2091 12 9 12Z" stroke="#000000" stroke-width="1" stroke-linecap="round" stroke-linejoin="round"/>
  </symbol>
  <symbol id="user-remove" viewBox="0 0 24 24" fill="none">
    <path d="M15 19C15 16.7909 12.3137 15 9 15C5.68629 15 3 16.7909 3 19M17 14L19 12M19 12L21 10M19 12L17 10M19 12L21 14M9 12C6.79086 12 5 10.2091 5 8C5 5.79086 6.79086 4 9 4C11.2091 4 13 5.79086 13 8C13 10.2091 11.2091 12 9 12Z" stroke="#000000" stroke-width="1" stroke-linecap="round" stroke-linejoin="round"/>
  </symbol>
  <symbol id="check" viewBox="0 0 24 24" fill="none">
    <path d="M6 12L10.2426 16.2426L18.727 7.75732" stroke="#000000" stroke-width="1" stroke-linecap="round" stroke-linejoin="round"/>
  </symbol>
</svg>