<svg xmlns="http://www.w3.org/2000/svg" style="display: none;">
  
  <symbol id="chat" viewBox="0 -960 960 960">
    <path d="m243.077-280-68.154 68.154q-15.154 15.154-35.039 6.962Q120-213.077 120-234.692v-540.693Q120-803 138.5-821.5 157-840 184.615-840h590.77Q803-840 821.5-821.5 840-803 840-775.385v430.77Q840-317 821.5-298.5 803-280 775.385-280H243.077ZM226-320h549.385q9.23 0 16.923-7.692Q800-335.385 800-344.615v-430.77q0-9.23-7.692-16.923Q784.615-800 775.385-800h-590.77q-9.23 0-16.923 7.692Q160-784.615 160-775.385v521.154L226-320Zm-66 0v-480 480Zm120-100h240q8.539 0 14.269-5.731Q540-431.461 540-440t-5.731-14.269Q528.539-460 520-460H280q-8.539 0-14.269 5.731Q260-448.539 260-440t5.731 14.269Q271.461-420 280-420Zm0-120h400q8.539 0 14.269-5.731Q700-551.461 700-560t-5.731-14.269Q688.539-580 680-580H280q-8.539 0-14.269 5.731Q260-568.539 260-560t5.731 14.269Q271.461-540 280-540Zm0-120h400q8.539 0 14.269-5.731Q700-671.461 700-680t-5.731-14.269Q688.539-700 680-700H280q-8.539 0-14.269 5.731Q260-688.539 260-680t5.731 14.269Q271.461-660 280-660Z"/>
  </symbol>

  <symbol id="chat-unread" viewBox="0 -960 960 960">
    <path d="M280-420h240q8.5 0 14.25-5.758 5.75-5.757 5.75-14.269t-5.75-14.242Q528.5-460 520-460H280q-8.5 0-14.25 5.758-5.75 5.757-5.75 14.269t5.75 14.242Q271.5-420 280-420Zm0-120h400q8.5 0 14.25-5.758 5.75-5.757 5.75-14.269t-5.75-14.242Q688.5-580 680-580H280q-8.5 0-14.25 5.758-5.75 5.757-5.75 14.269t5.75 14.242Q271.5-540 280-540Zm0-120h377.693v-.923q-14.693-7.231-25.578-16.731-10.884-9.5-19.807-22.346H280q-8.5 0-14.25 5.758-5.75 5.757-5.75 14.269t5.75 14.242Q271.5-660 280-660Zm-36.923 380-68.154 68.154q-15.154 15.154-35.039 6.842Q120-213.317 120-234.692v-540.693Q120-803 138.5-821.5 157-840 184.615-840H584q-2.462 10-2.846 19.615-.385 9.616-.231 20.385H184.615q-9.23 0-16.923 7.692Q160-784.615 160-775.385v521.154L226-320h549.385q9.23 0 16.923-7.692Q800-335.385 800-344.615v-281.693q11.462-2.692 21.077-6.192 9.616-3.5 18.923-9.039v297.288Q840-317 821.5-298.5 803-280 775.385-280H243.077Zm517.014-421.539q-41.63 0-70.86-29.14Q660-759.819 660-801.448q0-41.629 29.14-70.86 29.141-29.231 70.769-29.231 41.63 0 70.86 29.141Q860-843.258 860-801.629q0 41.629-29.14 70.86-29.141 29.23-70.769 29.23ZM160-775.385v510.769V-800-775.385Z"/>
  </symbol>

  <symbol id="user" viewBox="0 -960 960 960">
    <path d="M480-504.615q-49.5 0-84.75-35.25T360-624.615q0-49.501 35.25-84.751 35.25-35.25 84.75-35.25t84.75 35.25Q600-674.116 600-624.615q0 49.5-35.25 84.75T480-504.615ZM200-256.923v-24.308q0-24.769 14.423-46.346 14.423-21.577 38.808-33.5 56.615-27.154 113.307-40.731Q423.231-415.385 480-415.385q56.769 0 113.462 13.577 56.692 13.577 113.307 40.731 24.385 11.923 38.808 33.5Q760-306 760-281.231v24.308q0 17.616-11.961 29.577-11.962 11.962-29.577 11.962H241.538q-17.615 0-29.577-11.962Q200-239.307 200-256.923Zm40 1.538h480v-25.846q0-13.307-8.577-25-8.577-11.692-23.731-19.769-49.384-23.923-101.836-36.654Q533.405-375.385 480-375.385q-53.405 0-105.856 12.731Q321.692-349.923 272.308-326q-15.154 8.077-23.731 19.769-8.577 11.693-8.577 25v25.846Zm240-289.23q33 0 56.5-23.5t23.5-56.5q0-33-23.5-56.5t-56.5-23.5q-33 0-56.5 23.5t-23.5 56.5q0 33 23.5 56.5t56.5 23.5Zm0-80Zm0 369.23Z"/>
  </symbol>

  <symbol id="users" viewBox="0 -960 960 960">
    <path d="M103.846-281.231q0-27.846 14.423-47.884 14.423-20.039 38.765-32.029 52.043-24.779 103.35-39.51 51.308-14.731 123.462-14.731t123.462 14.731q51.307 14.731 103.35 39.51 24.342 11.99 38.765 32.029 14.423 20.038 14.423 47.884v24.308q0 15.308-11.961 28.423-11.962 13.116-29.577 13.116H145.384q-17.615 0-29.577-11.962-11.961-11.961-11.961-29.577v-24.308Zm710.77 65.847h-79.693q4.077-9.539 6.5-20.119 2.423-10.581 2.423-21.42v-26.154q0-34.769-14.074-65.64-14.075-30.871-39.926-52.976 29.462 6 56.769 16.654 27.308 10.654 54.001 23.962 26 13.077 40.769 33.469 14.769 20.393 14.769 44.531v26.154q0 17.616-11.961 29.577-11.962 11.962-29.577 11.962Zm-430.77-289.231q-49.5 0-84.75-35.25t-35.25-84.75q0-49.501 35.25-84.751 35.25-35.25 84.75-35.25t84.75 35.25q35.25 35.25 35.25 84.751 0 49.5-35.25 84.75t-84.75 35.25Zm290.77-120q0 49.5-35.25 84.75t-84.75 35.25q-2.539 0-6.462-.577-3.923-.577-6.462-1.269 20.325-24.895 31.239-55.235 10.915-30.34 10.915-63.015 0-32.674-11.423-62.443t-30.731-55.616q3.231-1.153 6.462-1.5 3.231-.346 6.462-.346 49.5 0 84.75 35.25t35.25 84.751Zm-530.77 369.23h480v-25.846q0-14.077-7.038-24.615-7.039-10.539-25.27-20.154-44.769-23.923-94.384-36.654-49.616-12.731-113.308-12.731-63.692 0-113.308 12.731-49.615 12.731-94.384 36.654-18.231 9.615-25.27 20.154-7.038 10.538-7.038 24.615v25.846Zm240-289.23q33 0 56.5-23.5t23.5-56.5q0-33-23.5-56.5t-56.5-23.5q-33 0-56.5 23.5t-23.5 56.5q0 33 23.5 56.5t56.5 23.5Zm0 289.23Zm0-369.23Z"/>
  </symbol>

  <symbol id='close' viewBox="0 -960 960 960">
    <path d="M480-451.692 270.154-241.846q-5.615 5.615-13.769 6-8.154.385-14.539-6T235.461-256q0-7.769 6.385-14.154L451.692-480 241.846-689.846q-5.615-5.615-6-13.769-.385-8.154 6-14.539T256-724.539q7.769 0 14.154 6.385L480-508.308l209.846-209.846q5.615-5.615 13.769-6 8.154-.385 14.539 6T724.539-704q0 7.769-6.385 14.154L508.308-480l209.846 209.846q5.615 5.615 6 13.769.385 8.154-6 14.539T704-235.461q-7.769 0-14.154-6.385L480-451.692Z"/>
  </symbol>

  <symbol id='sign-out' viewBox="0 -960 960 960">
    <path d="M224.615-160Q197-160 178.5-178.5 160-197 160-224.615v-510.77Q160-763 178.5-781.5 197-800 224.615-800h236.154q8.539 0 14.269 5.731 5.731 5.73 5.731 14.269 0 8.538-5.731 14.269-5.73 5.731-14.269 5.731H224.615q-9.23 0-16.923 7.692Q200-744.615 200-735.385v510.77q0 9.23 7.692 16.923Q215.385-200 224.615-200h236.154q8.539 0 14.269 5.731 5.731 5.731 5.731 14.269 0 8.539-5.731 14.269-5.73 5.731-14.269 5.731H224.615Zm497.769-300H387.692q-8.538 0-14.269-5.731-5.731-5.73-5.731-14.269t5.731-14.269Q379.154-500 387.692-500h334.692l-78.846-78.846q-5.615-5.616-6-13.539-.384-7.923 6-14.538 6.385-6.616 14.154-6.731 7.769-.116 14.385 6.5l104.539 104.539q9.692 9.692 9.692 22.615 0 12.923-9.692 22.615L672.077-352.846q-5.846 5.846-13.885 6.116-8.038.269-14.654-6.347-6.384-6.615-6.269-14.269.115-7.654 6.5-14.039L722.384-460Z"/>
  </symbol>

  
  <symbol id='chevron-left' viewBox="0 -960 960 960">
    <path d="m404.308-480 169.846 169.846q5.615 5.615 6 13.769.385 8.154-6 14.539T560-275.461q-7.769 0-14.154-6.385L370.308-457.385q-5.231-5.23-7.347-10.692-2.115-5.461-2.115-11.923t2.115-11.923q2.116-5.462 7.347-10.692l175.538-175.539q5.615-5.615 13.769-6 8.154-.385 14.539 6T580.539-664q0 7.769-6.385 14.154L404.308-480Z"/>
  </symbol>

  
  <symbol id='moon' viewBox="0 -960 960 960">
    <path d="M482.308-160Q349-160 255.654-253.346 162.307-346.692 162.307-480q0-98.769 56.539-181.423t160.385-118.885q12.231-4.308 21.462-2.269 9.23 2.038 15.23 7.961t7.654 15.231q1.654 9.308-2.5 19.539-7.769 19.077-11.269 38.658t-3.5 41.188q0 106.667 74.667 181.333Q555.641-404 662.308-404q27.923 0 51.115-5.923 23.192-5.923 39.5-9.616 8.693-1.615 15.962.423 7.269 2.039 11.532 7.039 4.737 5 6.391 12.307 1.654 7.308-1.885 16.693-28.615 98-112.115 160.539Q589.308-160 482.308-160Zm0-40q88 0 158-48.5t102-126.5q-20 5-40 8t-40 3q-123 0-209.5-86.5t-86.5-209.5q0-20 3-40t8-40q-78 32-126.5 102t-48.5 158q0 116 82 198t198 82Zm-10-270Z"/>
  </symbol>

  
  <symbol id='sun' viewBox="0 -960 960 960">
   <path d="M480-360q50 0 85-35t35-85q0-50-35-85t-85-35q-50 0-85 35t-35 85q0 50 35 85t85 35Zm0 40q-66.846 0-113.423-46.577T320-480q0-66.846 46.577-113.423T480-640q66.846 0 113.423 46.577T640-480q0 66.846-46.577 113.423T480-320ZM80-460q-8.5 0-14.25-5.758Q60-471.515 60-480.027t5.75-14.242Q71.5-500 80-500h100q8.5 0 14.25 5.758 5.75 5.757 5.75 14.269t-5.75 14.242Q188.5-460 180-460H80Zm700 0q-8.5 0-14.25-5.758-5.75-5.757-5.75-14.269t5.75-14.242Q771.5-500 780-500h100q8.5 0 14.25 5.758 5.75 5.757 5.75 14.269t-5.75 14.242Q888.5-460 880-460H780ZM479.973-760q-8.512 0-14.242-5.75Q460-771.5 460-780v-100q0-8.5 5.758-14.25 5.757-5.75 14.269-5.75t14.242 5.75Q500-888.5 500-880v100q0 8.5-5.758 14.25-5.757 5.75-14.269 5.75Zm0 700q-8.512 0-14.242-5.75Q460-71.5 460-80v-100q0-8.5 5.758-14.25 5.757-5.75 14.269-5.75t14.242 5.75Q500-188.5 500-180v100q0 8.5-5.758 14.25Q488.485-60 479.973-60ZM254.461-678.769l-57.615-55.846q-5.846-5.616-5.731-13.77.116-8.154 5.965-14.769 6.381-6.615 14.151-6.615 7.769 0 14.154 6.615L282-706.308q6.385 6.616 6.385 14.154 0 7.539-6 14.154t-13.654 6.115q-7.654-.5-14.27-6.884Zm480.154 481.923L678-253.692q-6.385-6.616-6.385-14.269 0-7.654 6.385-14.039 5.231-6.615 13.077-6.115t14.462 6.884l57.615 55.846q5.846 5.616 5.731 13.77-.116 8.154-5.965 14.769-6.381 6.615-14.151 6.615-7.769 0-14.154-6.615ZM678-677.615q-6.615-6-6.115-13.654t6.884-14.27l55.846-57.615q5.616-5.846 13.77-5.731 8.154.116 14.769 5.965 6.615 6.381 6.615 14.151 0 7.769-6.615 14.154L706.308-678q-6.616 6.385-14.154 6.385-7.539 0-14.154-6ZM196.846-196.679q-6.615-6.782-6.615-14.552 0-7.769 6.615-14.154L253.692-282q6.616-6.385 14.269-6.385 7.654 0 14.039 6.385 5.846 5.231 5.346 13.077t-6.115 14.462l-55.846 57.615q-6.385 6.615-14.154 6.5-7.77-.115-14.385-6.333ZM480-480Z"/>
  </symbol>

  <symbol id='error' viewBox="0 -960 960 960">
    <path d="M480-301.538q10.462 0 17.539-7.077 7.076-7.077 7.076-17.539 0-10.461-7.076-17.538-7.077-7.077-17.539-7.077-10.462 0-17.539 7.077-7.076 7.077-7.076 17.538 0 10.462 7.076 17.539 7.077 7.077 17.539 7.077Zm.027-132.308q8.512 0 14.242-5.75 5.731-5.75 5.731-14.25v-200q0-8.5-5.758-14.25-5.757-5.75-14.269-5.75t-14.242 5.75q-5.731 5.75-5.731 14.25v200q0 8.5 5.758 14.25 5.757 5.75 14.269 5.75ZM480.134-120q-74.673 0-140.41-28.339-65.737-28.34-114.365-76.922-48.627-48.582-76.993-114.257Q120-405.194 120-479.866q0-74.673 28.339-140.41 28.34-65.737 76.922-114.365 48.582-48.627 114.257-76.993Q405.194-840 479.866-840q74.673 0 140.41 28.339 65.737 28.34 114.365 76.922 48.627 48.582 76.993 114.257Q840-554.806 840-480.134q0 74.673-28.339 140.41-28.34 65.737-76.922 114.365-48.582 48.627-114.257 76.993Q554.806-120 480.134-120ZM480-160q134 0 227-93t93-227q0-134-93-227t-227-93q-134 0-227 93t-93 227q0 134 93 227t227 93Zm0-320Z"/>
  </symbol>

  <symbol id="basket" viewBox="0 -960 960 960">
    <path d="M304.615-160q-26.654 0-45.634-18.981Q240-197.961 240-224.615V-720h-20q-8.5 0-14.25-5.758T200-740.027q0-8.512 5.75-14.242Q211.5-760 220-760h140q0-12.385 9.192-21.577 9.193-9.193 21.577-9.193h178.462q12.384 0 21.577 9.193Q600-772.385 600-760h140q8.5 0 14.25 5.758 5.75 5.757 5.75 14.269 0 8.511-5.75 14.242Q748.5-720 740-720h-20v495.385q0 26.654-18.981 45.634Q682.039-160 655.385-160h-350.77ZM680-720H280v495.385q0 10.769 6.923 17.692T304.615-200h350.77q10.769 0 17.692-6.923T680-224.615V-720ZM412.335-280q8.511 0 14.242-5.75 5.731-5.75 5.731-14.25v-320q0-8.5-5.758-14.25T412.281-640q-8.512 0-14.243 5.75T392.307-620v320q0 8.5 5.758 14.25t14.27 5.75Zm135.384 0q8.512 0 14.243-5.75t5.731-14.25v-320q0-8.5-5.758-14.25t-14.27-5.75q-8.511 0-14.242 5.75-5.731 5.75-5.731 14.25v320q0 8.5 5.758 14.25t14.269 5.75ZM280-720v520-520Z"/>
  </symbol>

  <symbol id="send" viewBox="0 -960 800 960">
    <path d="M705.847-449.923 205.231-239.154q-16.154 6.462-30.693-2.73Q160-251.077 160-268.461v-423.078q0-17.384 14.538-26.577 14.539-9.192 30.693-2.73l500.616 210.769q19.615 8.692 19.615 30.077t-19.615 30.077ZM200-280l474-200-474-200v155.385L393.846-480 200-435.385V-280Zm0 0v-400 400Z"/>
  </symbol>
  
  <symbol id="save" viewBox="0 -960 960 960">
    <path d="M224.615-160Q197-160 178.5-178.5 160-197 160-224.615v-510.77Q160-763 178.5-781.5 197-800 224.615-800h411.616q12.923 0 25.115 5.231 12.193 5.23 20.885 13.923l98.615 98.615q8.693 8.692 13.923 20.885Q800-649.154 800-636.231v411.616Q800-197 781.5-178.5 763-160 735.385-160h-510.77ZM760-646 646-760H224.615q-10.769 0-17.692 6.923T200-735.385v510.77q0 10.769 6.923 17.692T224.615-200h510.77q10.769 0 17.692-6.923T760-224.615V-646ZM480-298.461q33.077 0 56.539-23.462Q560-345.384 560-378.461T536.539-435Q513.077-458.462 480-458.462T423.461-435Q400-411.538 400-378.461t23.461 56.538q23.462 23.462 56.539 23.462Zm-176.923-270.77h232.308q13.923 0 23.115-9.192 9.193-9.192 9.193-23.115v-55.385q0-13.923-9.193-23.116-9.192-9.192-23.115-9.192H303.077q-13.923 0-23.116 9.192-9.192 9.193-9.192 23.116v55.385q0 13.923 9.192 23.115 9.193 9.192 23.116 9.192ZM200-646v446-560 114Z"/>
  </symbol>

  <symbol id="pencil" viewBox="0 -960 960 960">
    <path d="M120 0q-16.077 0-28.038-11.577Q80-23.154 80-40q0-16.077 11.962-28.039Q103.923-80 120-80h720q16.077 0 28.038 11.578Q880-56.847 880-40q0 16.077-11.962 28.038Q856.077 0 840 0H120Zm120-286.923h42.923l352-351.769-21.308-22.077-21.846-21.077-351.769 352v42.923Zm-40 7.692v-54.539q0-6.461 1.846-12.038t7.077-10.808l439.846-438.846q6.385-6.385 13.962-9.308t15.115-2.923q8.308 0 15.231 2.923t13.538 9.539l41.154 41.385q6.616 6.384 9.424 13.692Q760-732.846 760-724.539q0 7.308-2.807 14.885-2.808 7.577-9.424 14.193L308.923-256.615q-5.23 5.23-10.807 7.461t-12.039 2.231h-53.77q-13.923 0-23.115-9.192Q200-265.308 200-279.231Zm520.769-445.538-42.923-42.924 42.923 42.924Zm-85.846 86.077-21.308-22.077-21.846-21.077 43.154 43.154Z"/>
  </symbol>

  <symbol id="pencil-square" viewBox="0 -960 960 960">
    <path d="M224.615-160Q197-160 178.5-178.5 160-197 160-224.615v-510.77Q160-763 178.5-781.5 197-800 224.615-800h335.462l-40 40H224.615q-9.23 0-16.923 7.692Q200-744.615 200-735.385v510.77q0 9.23 7.692 16.923Q215.385-200 224.615-200h510.77q9.23 0 16.923-7.692Q760-215.385 760-224.615v-299.539l40-40v339.539Q800-197 781.5-178.5 763-160 735.385-160h-510.77ZM480-480Zm-80 47.693v-45.462q0-12.923 5.231-25.116 5.23-12.192 13.923-20.884l338.615-338.616q6.615-6.615 13.923-9.154 7.308-2.538 15.385-2.538 7.538 0 14.731 2.538Q809-869 814.846-863.154L859.308-820q6.385 6.615 9.692 14.577 3.308 7.961 3.308 16.038t-2.423 15.27q-2.423 7.192-9.039 13.808L519.923-419.384q-8.692 8.692-20.884 14.038Q486.846-400 473.923-400h-41.616q-13.923 0-23.115-9.192Q400-418.384 400-432.307Zm432.539-356.308-44.462-46.77 44.462 46.77ZM440-440h43.692l266.616-266.615-21.847-21.846-24.384-23.385L440-487.769V-440Zm288.461-288.461-24.384-23.385 24.384 23.385 21.847 21.846-21.847-21.846Z"/>
  </symbol>

  <symbol id="check" viewBox="0 -960 960 960">
    <path d="m382-324.769 352.077-352.077q5.846-5.846 13.885-6.231 8.038-.385 14.653 6.231 6.616 6.615 6.616 14.269t-6.616 14.269l-358 358q-9.692 9.693-22.615 9.693-12.923 0-22.615-9.693l-162-162q-5.847-5.846-6.116-13.884-.269-8.039 6.346-14.654 6.616-6.616 14.27-6.616t14.269 6.616L382-324.769Z"/>
  </symbol>
  
  <symbol id="like" viewBox="0 -960 960 960">
    <path d="M479.231-196.23q-11.693 0-23.116-4.231T436-213.384l-45.923-41.462q-106.77-97-188.423-188.654Q120-535.154 120-634q0-76.308 51.846-128.154Q223.692-814 300-814q43.769 0 91.154 22.115 47.385 22.116 88.846 83.423 41.461-61.307 88.846-83.423Q616.231-814 660-814q76.308 0 128.154 51.846Q840-710.308 840-634q0 101.154-85 194.462-85 93.307-186.077 184.923l-45.692 41.231q-8.692 8.692-20.5 12.923t-23.5 4.231Z"/>
  </symbol>

  <symbol id="like-outline" viewBox="0 -960 960 960">
    <path d="M479.231-196.23q-11.693 0-23.116-4.231T436-213.384l-45.923-41.462q-106.77-97-188.423-188.654Q120-535.154 120-634q0-76.308 51.846-128.154Q223.692-814 300-814q43.769 0 91.154 22.115 47.385 22.116 88.846 83.423 41.461-61.307 88.846-83.423Q616.231-814 660-814q76.308 0 128.154 51.846Q840-710.308 840-634q0 101.154-85 194.462-85 93.307-186.077 184.923l-45.692 41.231q-8.692 8.692-20.5 12.923t-23.5 4.231Zm-18.77-470.693q-35.923-57.923-74.692-82.5Q347-774 300-774q-60 0-100 40t-40 100q0 44.308 25.077 90.885 25.077 46.577 67.346 95.423 42.27 48.846 97.154 99.923 54.885 51.077 114.269 105.154 6.923 6.154 16.154 6.154t16.154-6.154q59.384-54.077 114.269-105.154 54.884-51.077 97.154-99.923 42.269-48.846 67.346-95.423Q800-589.692 800-634q0-60-40-100t-100-40q-47 0-85.769 24.577-38.769 24.577-74.692 82.5-3.154 5.384-8.539 8.077-5.385 2.692-11 2.692t-11-2.692q-5.385-2.693-8.539-8.077ZM480-504.077Z"/>
  </symbol>

  <symbol id="dislike-outline" viewBox="0 -960 960 960">
    <path d="M440-501Zm0 327.154-46.231-41.693Q302.538-299 241.807-359.231q-60.73-60.23-96.538-107.153-35.808-46.924-50.538-85.847Q80-591.154 80-631q0-76.308 51.846-128.039 51.846-51.73 128.154-51.73 52.769 0 99 27t81 78.538q34.769-51.538 81-78.538t99-27q70.923 0 126.077 49.769 55.154 49.769 55.154 129.231 0 17.846-3.923 37.192t-11.769 39.192h-43.462q8.846-21.846 13-41.307 4.154-19.462 4.154-36.539 0-70.384-47.693-103.961-47.692-33.577-91.538-33.577-48.692 0-88.385 27.5-39.692 27.5-75.538 83.269h-32.154q-36.385-56.538-76.269-83.654-39.885-27.115-87.654-27.115-58.538 0-99.269 39.884Q120-691 120-631q0 33.769 14 68.539 14 34.769 50 80.038t98 106.308Q344-315.077 440-228q30.615-27.615 60.231-54.538 29.615-26.924 52.923-49.231l4.385 4.384 9.884 9.885 9.885 9.885 4.385 4.384q-23.539 22.308-52.539 48.347-29 26.038-58.846 53.653L440-173.846ZM589.231-420v-40h280v40h-280Z"/>
  </symbol>

  <symbol id="copy" viewBox="0 -960 960 960">
    <path d="M364.615-280Q337-280 318.5-298.5 300-317 300-344.615v-430.77Q300-803 318.5-821.5 337-840 364.615-840h310.77Q703-840 721.5-821.5 740-803 740-775.385v430.77Q740-317 721.5-298.5 703-280 675.385-280h-310.77Zm0-40h310.77q9.231 0 16.923-7.692Q700-335.385 700-344.615v-430.77q0-9.23-7.692-16.923Q684.616-800 675.385-800h-310.77q-9.23 0-16.923 7.692Q340-784.615 340-775.385v430.77q0 9.23 7.692 16.923Q355.385-320 364.615-320Zm-120 160Q217-160 198.5-178.5 180-197 180-224.615v-450.77q0-8.538 5.73-14.269 5.731-5.731 14.27-5.731 8.538 0 14.269 5.731T220-675.385v450.77q0 9.231 7.692 16.923Q235.384-200 244.615-200h330.77q8.538 0 14.269 5.731T595.385-180q0 8.539-5.731 14.27-5.731 5.73-14.269 5.73h-330.77ZM340-320v-480 480Z"/>
  </symbol>

  <symbol id="warning" viewBox="0 0 24 24" fill="#fee2e2">
    <path d="M12 8.4502V12.4502M12 21C7.02944 21 3 16.9706 3 12C3 7.02944 7.02944 3 12 3C16.9706 3 21 7.02944 21 12C21 16.9706 16.9706 21 12 21ZM12.0498 15.4502V15.5502L11.9502 15.5498V15.4502H12.0498Z" stroke="#7f1d1d" stroke-width="1" stroke-linecap="round" stroke-linejoin="round"/>
  </symbol>
  <symbol id="user-add" viewBox="0 0 24 24" fill="none">
    <path d="M15 19C15 16.7909 12.3137 15 9 15C5.68629 15 3 16.7909 3 19M19 16V13M19 13V10M19 13H16M19 13H22M9 12C6.79086 12 5 10.2091 5 8C5 5.79086 6.79086 4 9 4C11.2091 4 13 5.79086 13 8C13 10.2091 11.2091 12 9 12Z" stroke="#000000" stroke-width="1" stroke-linecap="round" stroke-linejoin="round"/>
  </symbol>
  <symbol id="user-incoming-request" viewBox="0 0 24 24" fill="none">
    <path d="M15 19C15 16.7909 12.3137 15 9 15C5.68629 15 3 16.7909 3 19M9 12C6.79086 12 5 10.2091 5 8C5 5.79086 6.79086 4 9 4C11.2091 4 13 5.79086 13 8C13 10.2091 11.2091 12 9 12Z" stroke="#000000" stroke-width="1" stroke-linecap="round" stroke-linejoin="round"/>
    <path d="M20 16L17 13L20 10" stroke="#000000" stroke-width="1" stroke-linecap="round" stroke-linejoin="round"/>
  </symbol>
  <symbol id="user-outcoming-request" viewBox="0 0 24 24" fill="none">
    <path d="M15 19C15 16.7909 12.3137 15 9 15C5.68629 15 3 16.7909 3 19M9 12C6.79086 12 5 10.2091 5 8C5 5.79086 6.79086 4 9 4C11.2091 4 13 5.79086 13 8C13 10.2091 11.2091 12 9 12Z" stroke="#000000" stroke-width="1" stroke-linecap="round" stroke-linejoin="round"/>
    <path d="M17 10L20 13L17 16" stroke="#000000" stroke-width="1" stroke-linecap="round" stroke-linejoin="round"/>
  </symbol>
  <symbol id="friend" viewBox="0 0 24 24" fill="none">
    <path d="M15 19C15 16.7909 12.3137 15 9 15C5.68629 15 3 16.7909 3 19M21 10L17 14L15 12M9 12C6.79086 12 5 10.2091 5 8C5 5.79086 6.79086 4 9 4C11.2091 4 13 5.79086 13 8C13 10.2091 11.2091 12 9 12Z" stroke="#000000" stroke-width="1" stroke-linecap="round" stroke-linejoin="round"/>
  </symbol>
  <symbol id="user-remove" viewBox="0 0 24 24" fill="none">
    <path d="M15 19C15 16.7909 12.3137 15 9 15C5.68629 15 3 16.7909 3 19M17 14L19 12M19 12L21 10M19 12L17 10M19 12L21 14M9 12C6.79086 12 5 10.2091 5 8C5 5.79086 6.79086 4 9 4C11.2091 4 13 5.79086 13 8C13 10.2091 11.2091 12 9 12Z" stroke="#000000" stroke-width="1" stroke-linecap="round" stroke-linejoin="round"/>
  </symbol>

</svg>