<svg xmlns="http://www.w3.org/2000/svg" style="display: none;">
  <symbol id="message" viewBox="0 0 128 128">
    <path d="M113,0H15A15,15,0,0,0,0,15V79.57a15,15,0,0,0,15,15H38.28a1,1,0,0,1,1,1V121a7,7,0,0,0,11.95,4.95L82.31,94.87a1,1,0,0,1,.71-.29h30a15,15,0,0,0,15-15V15A15,15,0,0,0,113,0Zm9,79.57a9,9,0,0,1-9,9H83a7,7,0,0,0-4.95,2L47,121.7a1,1,0,0,1-1.71-.71V95.57a7,7,0,0,0-7-7H15a9,9,0,0,1-9-9V15a9,9,0,0,1,9-9h98a9,9,0,0,1,9,9Z"/>
  </symbol>
  <symbol id="sign-out" viewBox="0 0 24 24">
    <style type="text/css">
	    .st0{opacity:0.2;fill:none;stroke:#000000;stroke-width:5.000000e-02;stroke-miterlimit:10;}
  </style>
  <g id="grid_system"/><g id="_icons"><g><path d="M16.6,4.2c-0.5-0.3-1.1-0.1-1.4,0.4c-0.3,0.5-0.1,1.1,0.4,1.4c2.1,1.3,3.5,3.6,3.5,6c0,3.9-3.1,7-7,7s-7-3.1-7-7    c0-2.5,1.4-4.8,3.5-6.1C9,5.6,9.2,5,8.9,4.6C8.6,4.1,8,3.9,7.5,4.2C4.7,5.8,3,8.8,3,12c0,5,4,9,9,9s9-4,9-9    C21,8.8,19.3,5.9,16.6,4.2z"/><path d="M12,13c0.6,0,1-0.4,1-1V3c0-0.6-0.4-1-1-1s-1,0.4-1,1v9C11,12.6,11.4,13,12,13z"/></g></g>
  </symbol>
  <symbol id="people-searching" viewBox="0 0 24 24">
    <path d="M11.9091 13.9984L19.7531 13.9997C20.9957 13.9997 22.0031 15.0071 22.0031 16.2497V17.1548C22.0031 18.2484 21.5256 19.2876 20.6958 20C19.1303 21.344 16.89 22.0008 14 22.0008L13.821 21.9997C14.0547 21.5291 14.0634 20.9753 13.8473 20.4985L14 20.5008C16.56 20.5008 18.4578 19.9444 19.7187 18.8619C20.2166 18.4345 20.5031 17.811 20.5031 17.1548V16.2497C20.5031 15.8355 20.1673 15.4997 19.7531 15.4997L11.9775 15.4997C11.9924 15.3345 12 15.1677 12 14.9998C12 14.6578 11.9688 14.3231 11.9091 13.9984ZM6.5 10.4998C8.98528 10.4998 11 12.5145 11 14.9998C11 16.0936 10.6097 17.0962 9.96089 17.8761L12.7827 20.6904C13.076 20.9829 13.0766 21.4578 12.784 21.751C12.5181 22.0176 12.1014 22.0423 11.8076 21.8248L11.7234 21.7523L8.82025 18.8563C8.14274 19.2648 7.34881 19.4998 6.5 19.4998C4.01472 19.4998 2 17.4851 2 14.9998C2 12.5145 4.01472 10.4998 6.5 10.4998ZM6.5 11.9998C4.84315 11.9998 3.5 13.3429 3.5 14.9998C3.5 16.6566 4.84315 17.9998 6.5 17.9998C8.15685 17.9998 9.5 16.6566 9.5 14.9998C9.5 13.3429 8.15685 11.9998 6.5 11.9998ZM14 2.00439C16.7614 2.00439 19 4.24297 19 7.00439C19 9.76582 16.7614 12.0044 14 12.0044C11.2386 12.0044 9 9.76582 9 7.00439C9 4.24297 11.2386 2.00439 14 2.00439ZM14 3.50439C12.067 3.50439 10.5 5.0714 10.5 7.00439C10.5 8.93739 12.067 10.5044 14 10.5044C15.933 10.5044 17.5 8.93739 17.5 7.00439C17.5 5.0714 15.933 3.50439 14 3.50439Z" fill="#212121"/>
  </symbol>
</svg>