<svg xmlns="http://www.w3.org/2000/svg" style="display: none;">
  <symbol id="chat" viewBox="0 0 24 24" fill="none">
    <path id="Vector" d="M9.33814 15.9905C12.4946 15.8151 15 13.2003 15 10C15 6.68629 12.3137 4 9 4C5.68629 4 3 6.68629 3 10C3 11.1807 3.34094 12.2817 3.92989 13.21L3.50586 14.482L3.50518 14.4839C3.34278 14.9711 3.26154 15.2149 3.31938 15.3771C3.36979 15.5184 3.48169 15.6299 3.62305 15.6803C3.78472 15.7379 4.02675 15.6573 4.51069 15.4959L4.51758 15.4939L5.79004 15.0698C6.7183 15.6588 7.81935 15.9998 9.00006 15.9998C9.11352 15.9998 9.22624 15.9967 9.33814 15.9905ZM9.33814 15.9905C9.33822 15.9907 9.33806 15.9902 9.33814 15.9905ZM9.33814 15.9905C10.1591 18.3259 12.3841 20.0002 15.0001 20.0002C16.1808 20.0002 17.2817 19.6588 18.2099 19.0698L19.482 19.4939L19.4845 19.4944C19.9717 19.6567 20.2158 19.7381 20.378 19.6803C20.5194 19.6299 20.6299 19.5184 20.6803 19.3771C20.7382 19.2146 20.6572 18.9706 20.4943 18.4821L20.0703 17.21L20.2123 16.9746C20.7138 16.0979 20.9995 15.0823 20.9995 14C20.9995 10.6863 18.3137 8 15 8L14.7754 8.00414L14.6621 8.00967" stroke="#000000" stroke-width="1" stroke-linecap="round" stroke-linejoin="round"/>
  </symbol>
  <symbol id="user" viewBox="0 0 24 24" fill="none">
    <path d="M20 21C20 18.2386 16.4183 16 12 16C7.58172 16 4 18.2386 4 21M12 13C9.23858 13 7 10.7614 7 8C7 5.23858 9.23858 3 12 3C14.7614 3 17 5.23858 17 8C17 10.7614 14.7614 13 12 13Z" stroke="#000000" stroke-width="1" stroke-linecap="round" stroke-linejoin="round"/>
  </symbol>
  <symbol id="users" viewBox="0 0 24 24" fill="none">
    <path d="M17 20C17 18.3431 14.7614 17 12 17C9.23858 17 7 18.3431 7 20M21 17.0004C21 15.7702 19.7659 14.7129 18 14.25M3 17.0004C3 15.7702 4.2341 14.7129 6 14.25M18 10.2361C18.6137 9.68679 19 8.8885 19 8C19 6.34315 17.6569 5 16 5C15.2316 5 14.5308 5.28885 14 5.76389M6 10.2361C5.38625 9.68679 5 8.8885 5 8C5 6.34315 6.34315 5 8 5C8.76835 5 9.46924 5.28885 10 5.76389M12 14C10.3431 14 9 12.6569 9 11C9 9.34315 10.3431 8 12 8C13.6569 8 15 9.34315 15 11C15 12.6569 13.6569 14 12 14Z" stroke="#000000" stroke-width="1" stroke-linecap="round" stroke-linejoin="round"/>
  </symbol>
  <symbol id="close-md" viewBox="0 0 24 24" fill="none">
    <path d="M18 18L12 12M12 12L6 6M12 12L18 6M12 12L6 18" stroke="#000000" stroke-width="1" stroke-linecap="round" stroke-linejoin="round"/>
  </symbol>
</svg>